<?xml version="1.0" ?><!DOCTYPE svg  PUBLIC '-//W3C//DTD SVG 1.1//EN'  'http://www.w3.org/Graphics/SVG/1.1/DTD/svg11.dtd'><svg height="131px" style="enable-background:new 0 0 185 131;" version="1.1" viewBox="0 0 185 131" width="185px" xml:space="preserve" xmlns="http://www.w3.org/2000/svg" xmlns:xlink="http://www.w3.org/1999/xlink"><style type="text/css">
<![CDATA[
	.st0{fill:#EF3E42;}
	.st1{fill:#FFFFFF;}
	.st2{fill:none;}
	.st3{fill-rule:evenodd;clip-rule:evenodd;fill:#FFFFFF;}
]]>
</style><defs/><path d="M109.1,41.2c0,4.8,3.9,8.7,8.7,8.7c4.8,0,8.7-3.9,8.7-8.7s-3.9-8.7-8.7-8.7C113,32.4,109.1,36.3,109.1,41.2L109.1,41.2z   M5,49.9c0,19.7,16,35.7,35.7,35.8c19.7,0,34.9-16.2,35.8-35.7c0.9-19.9,16-35.7,35.8-35.7c15.4,0,28.5,9.7,33.5,23.4l29.4,12.2  L147,61.5c-5.5,34-35,59.9-70.6,59.9C37,121.3,5,89.3,5,49.9L5,49.9z"/><rect class="st2" height="131" id="_x3C_Slice_x3E__100_" width="185"/></svg>