<?xml version="1.0" standalone="no"?>
<!DOCTYPE svg PUBLIC "-//W3C//DTD SVG 20010904//EN"
 "http://www.w3.org/TR/2001/REC-SVG-20010904/DTD/svg10.dtd">
<svg version="1.0" xmlns="http://www.w3.org/2000/svg"
 width="512.000000pt" height="512.000000pt" viewBox="0 0 512.000000 512.000000"
 preserveAspectRatio="xMidYMid meet">

<g transform="translate(0.000000,512.000000) scale(0.100000,-0.100000)"
fill="#000000" stroke="none">
<path d="M2321 5110 c-497 -48 -990 -251 -1376 -565 -114 -92 -294 -274 -384
-387 -229 -287 -417 -675 -495 -1023 -49 -218 -60 -325 -60 -575 0 -250 11
-357 60 -575 79 -355 272 -749 509 -1040 92 -114 274 -294 387 -384 287 -229
675 -417 1023 -495 218 -49 325 -60 575 -60 250 0 357 11 575 60 261 58 603
204 828 353 389 259 688 599 893 1016 125 255 196 484 241 775 24 161 24 539
0 700 -45 291 -116 520 -241 775 -134 272 -283 480 -498 692 -211 209 -404
346 -673 478 -252 124 -486 197 -765 240 -126 19 -468 27 -599 15z m-227
-1650 c66 -25 130 -85 159 -148 22 -47 22 -51 22 -752 l0 -705 -23 -51 c-27
-60 -69 -103 -132 -136 -63 -32 -186 -33 -246 -1 -57 31 -103 78 -130 138
l-24 50 0 708 c0 613 2 713 15 744 60 143 212 208 359 153z m1153 -8 c62 -32
105 -74 133 -129 l25 -48 3 -699 c3 -790 6 -756 -74 -845 -136 -151 -393 -103
-464 87 -19 51 -20 78 -20 751 l0 698 30 60 c32 64 71 100 142 134 57 26 164
22 225 -9z"/>
</g>
</svg>
